<?xml version="1.0" standalone="no"?><svg xmlns="http://www.w3.org/2000/svg" viewBox="0 0 1440 320"><path fill="#00b09b" fill-opacity="1" d="M0,288L24,266.7C48,245,96,203,144,197.3C192,192,240,224,288,229.3C336,235,384,213,432,186.7C480,160,528,128,576,138.7C624,149,672,203,720,234.7C768,267,816,277,864,250.7C912,224,960,160,1008,144C1056,128,1104,160,1152,181.3C1200,203,1248,213,1296,229.3C1344,245,1392,267,1416,277.3L1440,288L1440,0L1416,0C1392,0,1344,0,1296,0C1248,0,1200,0,1152,0C1104,0,1056,0,1008,0C960,0,912,0,864,0C816,0,768,0,720,0C672,0,624,0,576,0C528,0,480,0,432,0C384,0,336,0,288,0C240,0,192,0,144,0C96,0,48,0,24,0L0,0Z"></path></svg>